<svg xmlns="http://www.w3.org/2000/svg" viewBox="0 0 400 300">
  <defs>
    <radialGradient id="bg" cx="35%" cy="30%" r="80%">
      <stop offset="0%" stop-color="#f8fafc"/>
      <stop offset="100%" stop-color="#e2e8f0"/>
    </radialGradient>
  </defs>
  <rect width="400" height="300" fill="url(#bg)"/>
  <circle cx="330" cy="45" r="9" fill="#eab308"/>
  <!-- three fanned iron blades -->
  <g transform="translate(110,60) rotate(-14)">
    <line x1="30" y1="30" x2="110" y2="-45" stroke="#0f1f0f" stroke-width="7" stroke-linecap="round" opacity="0.55"/>
    <path d="M 0 70 L 60 10 L 92 30 L 42 100 Z" fill="#0f1f0f" opacity="0.55"/>
  </g>
  <g transform="translate(150,60)">
    <line x1="40" y1="35" x2="120" y2="-45" stroke="#0f1f0f" stroke-width="8" stroke-linecap="round" opacity="0.78"/>
    <path d="M 5 78 L 65 12 L 100 35 L 45 108 Z" fill="#0f1f0f" opacity="0.78"/>
    <line x1="20" y1="70" x2="70" y2="35" stroke="#16a34a" stroke-width="3" opacity="0.5"/>
  </g>
  <g transform="translate(195,60) rotate(14)">
    <line x1="45" y1="35" x2="130" y2="-45" stroke="#0f1f0f" stroke-width="9" stroke-linecap="round"/>
    <path d="M 5 82 L 68 12 L 104 36 L 48 112 Z" fill="#0f1f0f"/>
    <line x1="22" y1="72" x2="76" y2="34" stroke="#16a34a" stroke-width="4"/>
  </g>
  <text x="200" y="248" text-anchor="middle" font-family="Georgia, serif" font-size="30" font-weight="700" fill="#0f1f0f">IRON SET</text>
  <text x="200" y="270" text-anchor="middle" font-family="Arial, sans-serif" font-size="12" letter-spacing="2" fill="#6b7280">CLUB ILLUSTRATION</text>
</svg>
